<?xml version="1.0" standalone="no"?>
<!DOCTYPE svg PUBLIC "-//W3C//DTD SVG 20010904//EN"
 "http://www.w3.org/TR/2001/REC-SVG-20010904/DTD/svg10.dtd">
<svg version="1.0" xmlns="http://www.w3.org/2000/svg"
 width="300.000000pt" height="227.000000pt" viewBox="0 0 300.000000 227.000000"
 preserveAspectRatio="xMidYMid meet">
<metadata>
Created by potrace 1.10, written by Peter Selinger 2001-2011
</metadata>
<g transform="translate(0.000000,227.000000) scale(0.100000,-0.100000)"
fill="#f9f9f9" stroke="none">
<path d="M1300 1984 c-197 -30 -385 -144 -497 -301 -47 -67 -113 -204 -113
-237 0 -31 14 -8 44 72 131 343 533 534 881 418 211 -71 391 -245 452 -438 10
-32 24 -58 30 -58 17 0 -26 115 -70 190 -42 71 -186 216 -259 258 -132 78
-325 117 -468 96z"/>
<path d="M1348 1840 c4 -36 7 -40 33 -40 35 0 55 30 39 60 -7 14 -21 20 -43
20 -32 0 -32 -1 -29 -40z m57 0 c0 -18 -6 -26 -22 -28 -20 -3 -23 1 -23 28 0
27 3 31 23 28 16 -2 22 -10 22 -28z"/>
<path d="M1246 1838 c4 -18 7 -39 7 -45 0 -19 32 -16 48 4 13 15 12 15 -8 5
-17 -9 -22 -9 -27 3 -3 9 0 15 9 15 8 0 15 4 15 10 0 5 -7 7 -15 4 -9 -4 -15
0 -15 9 0 9 8 18 18 20 10 3 6 5 -11 6 -27 1 -28 -1 -21 -31z"/>
<path d="M1554 1843 c-3 -10 -10 -28 -14 -40 -7 -18 -5 -23 11 -28 11 -4 23
-4 26 -1 4 3 -2 6 -11 6 -10 0 -16 6 -13 13 2 6 12 11 21 11 9 -1 16 2 16 7 0
5 -7 9 -15 9 -8 0 -12 6 -9 14 3 9 12 12 21 9 11 -4 14 -2 9 5 -11 18 -36 14
-42 -5z"/>
<path d="M1171 1824 c10 -13 10 -17 -2 -25 -20 -12 -26 -11 -33 6 -3 8 -10 15
-15 15 -5 0 -2 -18 7 -40 19 -44 33 -53 29 -18 -1 14 4 23 16 26 10 2 17 -3
17 -12 0 -9 5 -16 10 -16 13 0 13 4 -4 45 -8 19 -20 35 -27 35 -8 0 -8 -4 2
-16z"/>
<path d="M1655 1779 c-4 -22 -5 -42 -3 -44 8 -8 77 48 72 57 -3 5 -13 0 -21
-11 -21 -30 -36 -26 -31 9 7 46 -9 36 -17 -11z"/>
<path d="M1053 1783 c-23 -8 -14 -40 12 -47 29 -7 33 -22 8 -29 -14 -4 -13 -5
4 -6 12 0 25 4 28 9 9 15 -14 40 -36 40 -21 0 -26 16 -6 23 6 2 10 7 7 9 -3 3
-11 3 -17 1z"/>
<path d="M1752 1719 c-20 -24 -22 -32 -12 -44 7 -8 18 -15 24 -14 7 0 6 2 -1
6 -7 2 -13 11 -13 20 0 10 6 12 22 7 20 -6 21 -5 10 9 -10 11 -10 17 -1 22 6
4 15 1 20 -6 5 -8 9 -9 9 -3 0 11 -20 34 -29 33 -4 0 -17 -13 -29 -30z"/>
<path d="M976 1722 c-3 -6 -3 -12 2 -14 4 -1 17 -16 29 -31 12 -15 24 -24 26
-20 3 4 -8 23 -23 41 -15 19 -31 29 -34 24z"/>
<path d="M1821 1646 c-19 -14 -28 -27 -22 -31 6 -3 11 -2 11 2 0 5 9 14 20 21
19 12 20 11 14 -29 -6 -38 -6 -41 12 -30 37 21 57 41 50 48 -4 4 -10 3 -14 -2
-4 -6 -14 -16 -23 -23 -15 -11 -16 -8 -9 28 4 22 4 40 1 40 -4 0 -22 -11 -40
-24z"/>
<path d="M900 1640 c0 -5 3 -10 8 -10 4 0 19 -11 34 -25 27 -25 27 -25 38 -4
6 11 9 25 6 32 -2 7 -5 4 -5 -5 -1 -24 -24 -23 -46 2 -20 22 -35 26 -35 10z"/>
<path d="M850 1566 c-19 -24 -8 -60 22 -70 33 -12 58 6 58 40 0 38 -56 58 -80
30z m51 -6 c23 -13 25 -33 5 -49 -11 -9 -20 -10 -35 -1 -24 12 -27 30 -9 48
15 15 15 15 39 2z"/>
<path d="M1936 1556 c4 -9 -6 -20 -25 -31 -17 -8 -31 -20 -31 -25 0 -5 15 0
34 11 33 19 35 19 45 2 16 -28 13 -6 -4 27 -16 31 -29 41 -19 16z"/>
<path d="M801 1448 c-7 -20 -4 -25 23 -35 39 -15 56 -16 56 -3 0 6 -9 10 -19
10 -26 0 -51 10 -51 21 0 5 7 9 15 9 8 0 15 -5 15 -12 0 -6 3 -8 6 -5 8 8 -14
37 -28 37 -5 0 -12 -10 -17 -22z"/>
<path d="M1950 1430 c-12 -23 -35 -27 -26 -5 3 8 1 15 -4 15 -17 0 -11 -30 7
-37 10 -4 23 2 34 15 21 27 26 27 32 5 4 -14 5 -12 6 5 1 29 -34 30 -49 2z"/>
<path d="M1185 1356 c-25 -35 -52 -67 -61 -70 -42 -16 -121 -4 -232 35 -137
47 -217 55 -251 25 -21 -19 -28 -46 -12 -46 5 0 14 7 21 15 23 28 109 19 237
-27 86 -30 133 -41 174 -41 l56 1 -33 -55 c-34 -57 -104 -216 -104 -237 0 -23
-47 -69 -64 -63 -20 8 -21 31 -1 47 12 10 18 10 33 -1 15 -13 16 -12 3 4 -17
22 -34 22 -55 -2 -14 -15 -15 -24 -6 -40 11 -22 54 -29 65 -11 3 5 12 7 20 4
10 -4 23 15 45 62 70 154 230 377 259 360 20 -13 11 -33 -19 -46 -38 -16 -92
-77 -88 -98 9 -47 101 2 127 66 8 19 24 32 46 39 33 10 33 10 40 -23 7 -38 37
-64 76 -64 39 0 102 51 149 120 65 96 102 101 283 38 143 -48 230 -56 266 -24
39 36 13 51 -35 20 -32 -22 -76 -14 -223 36 -168 59 -245 52 -297 -26 -37 -54
-121 -134 -142 -134 -21 0 -52 24 -52 41 0 5 7 9 15 9 26 0 94 39 105 59 28
54 -7 93 -60 66 -16 -8 -40 -29 -52 -45 -12 -17 -37 -34 -56 -40 -30 -8 -36
-6 -57 18 -20 23 -26 25 -48 15 -14 -7 -49 -42 -77 -78 -29 -36 -54 -65 -56
-65 -8 0 13 33 70 113 31 43 56 82 56 87 0 29 -24 12 -65 -44z m325 5 c0 -13
-63 -61 -80 -61 -8 0 1 16 20 35 33 34 60 45 60 26z m-273 -158 c-14 -15 -30
-24 -34 -20 -4 5 6 19 22 32 39 30 47 22 12 -12z"/>
<path d="M2116 1228 c-2 -7 -11 -49 -19 -93 -20 -109 -50 -183 -108 -270 -97
-144 -249 -253 -415 -295 -97 -25 -251 -27 -343 -4 -260 64 -459 262 -525 524
-23 90 -36 121 -36 83 0 -40 40 -174 70 -234 123 -249 379 -409 654 -409 330
0 622 220 705 530 22 83 36 180 27 180 -4 0 -8 -6 -10 -12z"/>
<path d="M863 1022 c-33 -16 -47 -40 -17 -28 9 4 23 1 30 -5 17 -14 34 -3 34
21 0 27 -11 30 -47 12z"/>
<path d="M1887 1025 c-8 -19 9 -28 39 -21 23 6 25 4 19 -15 -5 -14 -4 -19 4
-15 6 4 11 16 11 28 0 18 -4 20 -31 14 -25 -5 -30 -3 -25 9 3 8 1 15 -3 15 -5
0 -11 -7 -14 -15z"/>
<path d="M1846 955 c-20 -30 -21 -41 -2 -26 10 8 19 6 40 -10 14 -11 26 -16
26 -11 0 5 -11 17 -25 26 -15 10 -22 22 -19 31 9 23 -2 18 -20 -10z"/>
<path d="M1800 896 c0 -4 10 -17 23 -27 l22 -20 -44 7 -44 6 24 -30 c13 -17
28 -31 33 -31 5 -1 1 8 -8 18 -17 19 -17 20 19 23 l37 3 -31 29 c-17 17 -31
26 -31 22z"/>
<path d="M972 853 c-18 -20 -21 -28 -11 -39 6 -8 16 -14 21 -14 6 0 5 7 -2 15
-11 13 -9 20 10 40 13 14 19 25 14 24 -5 -1 -19 -12 -32 -26z"/>
<path d="M1041 799 c-13 -17 -20 -34 -16 -37 4 -4 11 1 16 10 5 9 16 24 24 32
8 8 11 17 7 20 -5 3 -19 -8 -31 -25z"/>
<path d="M1705 810 c-6 -9 1 -25 24 -59 8 -12 12 -12 25 -2 9 8 16 19 16 25 0
6 -4 5 -9 -3 -5 -7 -14 -10 -21 -6 -9 6 -9 10 1 17 11 8 10 9 -3 5 -19 -6 -33
19 -15 27 9 3 9 5 0 5 -6 1 -15 -3 -18 -9z"/>
<path d="M1100 760 c0 -16 -4 -30 -10 -30 -5 0 -10 5 -10 12 0 6 -3 8 -6 5 -4
-4 -1 -13 6 -22 19 -23 42 0 33 33 -5 21 -3 24 11 19 10 -4 15 -3 11 3 -14 22
-35 10 -35 -20z"/>
<path d="M1651 751 l-1 -34 -25 23 c-14 13 -25 19 -25 12 0 -6 12 -20 28 -32
l27 -22 3 21 c2 12 1 31 -1 44 -3 15 -5 11 -6 -12z"/>
<path d="M1167 743 c-2 -10 -8 -27 -12 -38 -6 -18 -5 -19 7 -3 17 20 44 8 35
-16 -4 -9 -2 -16 2 -16 5 0 14 14 20 31 14 41 13 48 -2 27 -16 -20 -43 -8 -34
16 4 9 3 16 -2 16 -5 0 -11 -8 -14 -17z"/>
<path d="M1531 731 c-11 -7 -11 -15 -2 -44 9 -27 16 -34 31 -30 11 3 20 9 20
14 0 5 -6 6 -14 3 -8 -3 -17 -1 -21 5 -3 6 0 11 7 11 10 0 9 3 -2 11 -11 8
-12 12 -2 16 13 5 17 23 5 23 -5 0 -14 -4 -22 -9z"/>
<path d="M1270 713 c0 -10 -3 -28 -6 -40 -5 -19 -2 -23 17 -22 22 0 22 1 4 8
-19 8 -19 8 0 19 11 6 14 12 8 12 -20 0 -15 20 5 20 14 0 15 2 2 10 -22 14
-30 12 -30 -7z"/>
<path d="M1350 679 c0 -39 1 -40 33 -37 25 2 33 8 35 26 5 30 -14 52 -44 52
-21 0 -24 -5 -24 -41z m58 -7 c-2 -9 -11 -18 -21 -20 -13 -3 -17 3 -17 28 0
28 2 30 21 20 11 -6 19 -19 17 -28z"/>
</g>
</svg>
